<svg width="26" height="26" viewBox="0 0 26 26" fill="none" xmlns="http://www.w3.org/2000/svg">
<path d="M13 0.5C19.9037 0.5 25.5 6.09625 25.5 13C25.5 19.9037 19.9037 25.5 13 25.5C6.09625 25.5 0.5 19.9037 0.5 13C0.5 6.09625 6.09625 0.5 13 0.5ZM13 3C10.3478 3 7.8043 4.05357 5.92893 5.92893C4.05357 7.8043 3 10.3478 3 13C3 15.6522 4.05357 18.1957 5.92893 20.0711C7.8043 21.9464 10.3478 23 13 23C15.6522 23 18.1957 21.9464 20.0711 20.0711C21.9464 18.1957 23 15.6522 23 13C23 10.3478 21.9464 7.8043 20.0711 5.92893C18.1957 4.05357 15.6522 3 13 3ZM13 18C13.3315 18 13.6495 18.1317 13.8839 18.3661C14.1183 18.6005 14.25 18.9185 14.25 19.25C14.25 19.5815 14.1183 19.8995 13.8839 20.1339C13.6495 20.3683 13.3315 20.5 13 20.5C12.6685 20.5 12.3505 20.3683 12.1161 20.1339C11.8817 19.8995 11.75 19.5815 11.75 19.25C11.75 18.9185 11.8817 18.6005 12.1161 18.3661C12.3505 18.1317 12.6685 18 13 18ZM13 6.125C14.0528 6.12503 15.0728 6.49169 15.8847 7.162C16.6966 7.83231 17.2498 8.76442 17.4491 9.79822C17.6485 10.832 17.4816 11.903 16.9772 12.8271C16.4728 13.7513 15.6623 14.471 14.685 14.8625C14.541 14.9172 14.4108 15.003 14.3038 15.1138C14.2488 15.1763 14.24 15.2563 14.2413 15.3388L14.25 15.5C14.2496 15.8186 14.1277 16.125 13.9089 16.3567C13.6902 16.5884 13.3913 16.7278 13.0733 16.7465C12.7552 16.7651 12.442 16.6617 12.1977 16.4572C11.9534 16.2527 11.7964 15.9626 11.7587 15.6462L11.75 15.5V15.1875C11.75 13.7463 12.9125 12.8812 13.755 12.5425C14.0979 12.4056 14.397 12.1778 14.6202 11.8837C14.8435 11.5896 14.9823 11.2403 15.022 10.8732C15.0616 10.5061 15.0006 10.1352 14.8453 9.80018C14.69 9.46519 14.4464 9.17883 14.1407 8.97185C13.8349 8.76486 13.4786 8.64507 13.1099 8.62534C12.7412 8.6056 12.3741 8.68667 12.048 8.85984C11.7219 9.03301 11.4491 9.29173 11.259 9.60822C11.0688 9.92472 10.9685 10.287 10.9688 10.6562C10.9688 10.9878 10.8371 11.3057 10.6026 11.5401C10.3682 11.7746 10.0503 11.9062 9.71875 11.9062C9.38723 11.9062 9.06929 11.7746 8.83487 11.5401C8.60045 11.3057 8.46875 10.9878 8.46875 10.6562C8.46875 9.45449 8.94615 8.30195 9.79592 7.45217C10.6457 6.6024 11.7982 6.125 13 6.125Z" fill="#BA915F"/>
</svg>
