<svg width="22" height="26" viewBox="0 0 22 26" fill="none" xmlns="http://www.w3.org/2000/svg">
<path d="M17.9948 21.168V10.668C17.9948 8.81145 17.2573 7.03098 15.9445 5.71822C14.6318 4.40547 12.8513 3.66797 10.9948 3.66797C9.13828 3.66797 7.3578 4.40547 6.04505 5.71822C4.73229 7.03098 3.99479 8.81145 3.99479 10.668V21.168M17.9948 21.168H3.99479M17.9948 21.168H20.3281M3.99479 21.168H1.66146M12.1615 24.668H9.82813" stroke="#BA915F" stroke-width="2" stroke-linecap="round" stroke-linejoin="round"/>
<path d="M10.9896 3.66732C10.3453 3.66732 9.82292 3.14498 9.82292 2.50065C9.82292 1.85632 10.3453 1.33398 10.9896 1.33398C11.6339 1.33398 12.1562 1.85632 12.1562 2.50065C12.1562 3.14498 11.6339 3.66732 10.9896 3.66732Z" stroke="#BA915F" stroke-width="2"/>
</svg>
