<svg width="38" height="38" viewBox="0 0 38 38" fill="none" xmlns="http://www.w3.org/2000/svg">
<path fill-rule="evenodd" clip-rule="evenodd" d="M31.2581 34.4923H36.1613C36.6489 34.4923 37.1166 34.6771 37.4615 35.006C37.8063 35.3349 38 35.781 38 36.2462C38 36.7113 37.8063 37.1574 37.4615 37.4863C37.1166 37.8152 36.6489 38 36.1613 38H1.83871C1.35105 38 0.88337 37.8152 0.538545 37.4863C0.19372 37.1574 0 36.7113 0 36.2462C0 35.781 0.19372 35.3349 0.538545 35.006C0.88337 34.6771 1.35105 34.4923 1.83871 34.4923H6.74194V6.5664C6.74194 2.97452 9.44361 0 12.871 0H25.129C28.5564 0 31.2581 2.97452 31.2581 6.5664V34.4923Z" fill="#8A1538"/>
</svg>
