<svg width="443" height="50" viewBox="0 0 443 50" fill="none" xmlns="http://www.w3.org/2000/svg">
<path d="M6.23972 20.5962C5.50894 20.5962 4.86248 20.5681 4.30035 20.5119C3.73821 20.4698 3.21823 20.3925 2.74042 20.28C2.2626 20.1676 1.80586 20.0271 1.37021 19.8584C0.934552 19.6898 0.477816 19.479 0 19.226L1.55993 15.7478C2.23449 16.1554 2.88798 16.4364 3.52038 16.591C4.16684 16.7315 4.84843 16.8018 5.56516 16.8018H9.2331V12.1009C9.2331 10.9064 9.38769 9.89456 9.69686 9.06541C10.0201 8.23625 10.533 7.54764 11.2357 6.99955C11.7697 6.592 12.3881 6.28986 13.0908 6.09311C13.7934 5.89636 14.6156 5.79799 15.5571 5.79799H19.8996V14.1668H21.9444V17.9612H16.1052V9.59241H15.2199C14.9107 9.59241 14.6296 9.62052 14.3767 9.67673C14.1237 9.73294 13.8988 9.84537 13.7021 10.014C13.4913 10.1827 13.3226 10.4145 13.1962 10.7097C13.0837 10.9907 13.0275 11.2999 13.0275 11.6372V20.5962H6.23972ZM5.79704 15.5581C5.24895 15.5581 4.76411 15.4035 4.34251 15.0943C3.9209 14.7851 3.7101 14.3144 3.7101 13.682C3.7101 13.1198 3.90685 12.6701 4.30035 12.3328C4.7079 11.9955 5.20679 11.8269 5.79704 11.8269C6.40133 11.8269 6.90023 11.9955 7.29373 12.3328C7.68722 12.6701 7.88397 13.1198 7.88397 13.682C7.88397 14.3144 7.67317 14.7851 7.25157 15.0943C6.82996 15.4035 6.34512 15.5581 5.79704 15.5581ZM5.79704 10.794C5.24895 10.794 4.76411 10.6394 4.34251 10.3302C3.9209 10.021 3.7101 9.55025 3.7101 8.91785C3.7101 8.35571 3.90685 7.906 4.30035 7.56872C4.7079 7.23144 5.20679 7.06279 5.79704 7.06279C6.40133 7.06279 6.90023 7.23144 7.29373 7.56872C7.68722 7.906 7.88397 8.35571 7.88397 8.91785C7.88397 9.55025 7.67317 10.021 7.25157 10.3302C6.82996 10.6394 6.34512 10.794 5.79704 10.794Z" fill="black"/>
<path d="M21.9444 14.1668H59.273V0.865234H63.0674V17.9612H21.9444V14.1668Z" fill="black"/>
<path d="M75.4731 22.5989C75.0515 22.5989 74.6299 22.5707 74.2083 22.5145C73.8007 22.4583 73.3299 22.3389 72.7959 22.1562L72.2478 18.3828C72.8661 18.6358 73.4002 18.8255 73.8499 18.952C74.2996 19.0785 74.7915 19.1417 75.3255 19.1417C76.0422 19.1417 76.5903 19.0574 76.9698 18.8887C77.3633 18.7201 77.6232 18.4109 77.7497 17.9612C76.7098 17.9472 75.7401 17.8207 74.8407 17.5818C73.9553 17.3429 73.1823 16.9775 72.5218 16.4856C71.8754 15.9797 71.3624 15.3473 70.9829 14.5884C70.6175 13.8295 70.4348 12.9231 70.4348 11.8691C70.4348 10.8713 70.6175 9.99293 70.9829 9.23405C71.3483 8.47516 71.8543 7.84276 72.5008 7.33684C73.1613 6.83091 73.9342 6.45147 74.8196 6.19851C75.719 5.93149 76.7028 5.79799 77.7708 5.79799H81.6707V16.6121C81.6707 17.5256 81.5723 18.3477 81.3755 19.0785C81.1788 19.8092 80.8415 20.4346 80.3637 20.9546C79.8859 21.4886 79.2464 21.8962 78.4454 22.1772C77.6584 22.4583 76.6676 22.5989 75.4731 22.5989ZM74.2293 11.8691C74.2293 12.2766 74.2996 12.6279 74.4401 12.9231C74.5807 13.2041 74.7704 13.443 75.0093 13.6398C75.2623 13.8225 75.5504 13.956 75.8736 14.0403C76.1968 14.1246 76.5411 14.1668 76.9065 14.1668H77.8762V9.59241H77.033C76.6676 9.59241 76.3163 9.6416 75.979 9.73997C75.6558 9.82429 75.3606 9.96483 75.0936 10.1616C74.8266 10.3443 74.6158 10.5832 74.4612 10.8783C74.3066 11.1594 74.2293 11.4896 74.2293 11.8691Z" fill="black"/>
<path d="M88.9792 14.1668H95.9989V11.9955C95.9989 11.2788 95.8443 10.7167 95.5351 10.3091C95.3524 10.0702 95.1276 9.89456 94.8605 9.78213C94.6076 9.65565 94.2773 9.59241 93.8698 9.59241H92.7104V5.79799H93.5114C94.5935 5.79799 95.5492 5.93149 96.3783 6.19851C97.2215 6.46552 97.9102 6.91523 98.4442 7.54764C98.9782 8.18004 99.3366 8.88271 99.5193 9.65565C99.702 10.4145 99.7933 11.3069 99.7933 12.3328V14.1668H101.943V17.9612H88.9792V14.1668Z" fill="black"/>
<path d="M101.943 14.1668H188.13V0.865234H191.924V17.9612H101.943V14.1668Z" fill="black"/>
<path d="M197.771 0.865234H201.566V17.9612H197.771V0.865234Z" fill="black"/>
<path d="M220.796 20.5954C219.602 20.5954 218.555 20.4619 217.655 20.1949C216.77 19.9279 216.011 19.4922 215.379 18.8879C214.788 18.3258 214.367 17.6231 214.114 16.7799C213.861 15.9227 213.734 15.0092 213.734 14.0395V7.14631H217.529V13.5336C217.529 14.1238 217.599 14.6087 217.74 14.9881C217.894 15.3676 218.112 15.6908 218.393 15.9578C218.716 16.281 219.117 16.5059 219.595 16.6324C220.072 16.7448 220.585 16.801 221.134 16.801H222.377V7.14631H226.172V20.5954H220.796ZM220.016 5.92366C219.468 5.92366 218.983 5.76907 218.562 5.45989C218.14 5.15072 217.929 4.67993 217.929 4.04753C217.929 3.48539 218.126 3.03568 218.52 2.6984C218.927 2.36112 219.426 2.19247 220.016 2.19247C220.621 2.19247 221.119 2.36112 221.513 2.6984C221.906 3.03568 222.103 3.48539 222.103 4.04753C222.103 4.67993 221.892 5.15072 221.471 5.45989C221.049 5.76907 220.564 5.92366 220.016 5.92366Z" fill="black"/>
<path d="M239.735 22.598C239.313 22.598 238.892 22.5699 238.47 22.5137C238.063 22.4575 237.592 22.3381 237.058 22.1554L236.51 18.382C237.128 18.635 237.662 18.8247 238.112 18.9512C238.562 19.0777 239.053 19.1409 239.588 19.1409C240.304 19.1409 240.852 19.0566 241.232 18.8879C241.625 18.7193 241.885 18.4101 242.012 17.9604C240.972 17.9464 240.002 17.8199 239.103 17.581C238.217 17.3421 237.444 16.9767 236.784 16.4848C236.137 15.9789 235.624 15.3465 235.245 14.5876C234.88 13.8287 234.697 12.9223 234.697 11.8683C234.697 10.8705 234.88 9.99212 235.245 9.23324C235.61 8.47435 236.116 7.84195 236.763 7.33603C237.423 6.8301 238.196 6.45066 239.082 6.1977C239.981 5.93069 240.965 5.79718 242.033 5.79718H245.933V16.6113C245.933 17.5248 245.834 18.3469 245.638 19.0777C245.441 19.8084 245.103 20.4338 244.626 20.9538C244.148 21.4878 243.508 21.8954 242.707 22.1764C241.92 22.4575 240.93 22.598 239.735 22.598ZM238.491 11.8683C238.491 12.2758 238.562 12.6271 238.702 12.9223C238.843 13.2033 239.032 13.4422 239.271 13.639C239.524 13.8217 239.812 13.9552 240.136 14.0395C240.459 14.1238 240.803 14.166 241.169 14.166H242.138V9.5916H241.295C240.93 9.5916 240.578 9.64079 240.241 9.73916C239.918 9.82348 239.623 9.96402 239.356 10.1608C239.089 10.3435 238.878 10.5824 238.723 10.8775C238.569 11.1586 238.491 11.4888 238.491 11.8683Z" fill="black"/>
<path d="M254.184 0.864425H257.978V14.166H260.318V17.9604H254.184V0.864425Z" fill="black"/>
<path d="M260.318 14.166H286.679L284.403 8.22139C285.316 7.16739 286.335 6.33823 287.459 5.73394C288.598 5.11559 289.827 4.80641 291.148 4.80641C291.809 4.80641 292.448 4.89073 293.067 5.05937C293.685 5.22801 294.275 5.46692 294.837 5.7761C295.413 6.07122 295.955 6.42958 296.46 6.85118C296.98 7.25873 297.465 7.71547 297.915 8.22139L295.744 14.166H299.074V17.9604H260.318V14.166ZM291.148 8.70624C290.67 8.70624 290.249 8.79758 289.883 8.98028C289.518 9.14892 289.132 9.41593 288.724 9.78132L290.41 14.166H291.949L293.594 9.78132C293.242 9.45809 292.87 9.19811 292.476 9.00136C292.097 8.80461 291.654 8.70624 291.148 8.70624Z" fill="black"/>
<path d="M299.074 14.166H326.912V5.79718H330.707V14.166H334.312V17.9604H299.074V14.166ZM326.217 4.38481C325.683 4.38481 325.219 4.23725 324.825 3.94213C324.432 3.647 324.235 3.20432 324.235 2.61408C324.235 2.08005 324.425 1.65142 324.804 1.32819C325.184 0.990907 325.655 0.822266 326.217 0.822266C326.779 0.822266 327.25 0.990907 327.629 1.32819C328.009 1.65142 328.198 2.08005 328.198 2.61408C328.198 3.20432 328.002 3.647 327.608 3.94213C327.215 4.23725 326.751 4.38481 326.217 4.38481ZM331.128 4.38481C330.608 4.38481 330.152 4.23725 329.758 3.94213C329.365 3.647 329.168 3.20432 329.168 2.61408C329.168 2.08005 329.351 1.65142 329.716 1.32819C330.095 0.990907 330.566 0.822266 331.128 0.822266C331.705 0.822266 332.175 0.990907 332.541 1.32819C332.92 1.65142 333.11 2.08005 333.11 2.61408C333.11 3.20432 332.913 3.647 332.52 3.94213C332.126 4.23725 331.662 4.38481 331.128 4.38481Z" fill="black"/>
<path d="M334.312 14.166H360V0.864425H363.794V17.9604H334.312V14.166Z" fill="black"/>
<path d="M369.641 0.864425H373.435V17.9604H369.641V0.864425Z" fill="black"/>
<path d="M393.896 17.9603C391.521 17.9603 389.701 17.4544 388.436 16.4425C387.171 15.4307 386.539 13.9129 386.539 11.8892C386.539 10.9055 386.722 10.0341 387.087 9.27526C387.453 8.51637 387.958 7.87694 388.605 7.35697C389.251 6.83699 390.024 6.44349 390.924 6.17648C391.823 5.90946 392.807 5.77596 393.875 5.77596V4.74303H397.669V17.9603H393.896ZM393.875 14.1659V9.57038H392.905C392.568 9.57038 392.245 9.62659 391.936 9.73902C391.626 9.8374 391.352 9.99198 391.113 10.2028C390.875 10.3995 390.685 10.6455 390.544 10.9406C390.404 11.2217 390.333 11.5379 390.333 11.8892C390.333 12.2686 390.397 12.6059 390.523 12.901C390.664 13.1821 390.846 13.421 391.071 13.6178C391.31 13.8005 391.584 13.941 391.893 14.0394C392.217 14.1237 392.554 14.1659 392.905 14.1659H393.875ZM390.734 3.56254C390.2 3.56254 389.736 3.41498 389.343 3.11986C388.949 2.82474 388.752 2.38206 388.752 1.79181C388.752 1.25778 388.942 0.829152 389.322 0.505923C389.701 0.168641 390.172 0 390.734 0C391.296 0 391.767 0.168641 392.146 0.505923C392.526 0.829152 392.716 1.25778 392.716 1.79181C392.716 2.38206 392.519 2.82474 392.125 3.11986C391.732 3.41498 391.268 3.56254 390.734 3.56254ZM395.646 3.56254C395.126 3.56254 394.669 3.41498 394.275 3.11986C393.882 2.82474 393.685 2.38206 393.685 1.79181C393.685 1.25778 393.868 0.829152 394.233 0.505923C394.613 0.168641 395.084 0 395.646 0C396.222 0 396.693 0.168641 397.058 0.505923C397.437 0.829152 397.627 1.25778 397.627 1.79181C397.627 2.38206 397.43 2.82474 397.037 3.11986C396.643 3.41498 396.18 3.56254 395.646 3.56254Z" fill="black"/>
<path d="M403.17 22.5979C402.917 22.5979 402.664 22.5768 402.411 22.5347C402.158 22.4925 401.933 22.4433 401.736 22.3871L401.294 18.6138C401.617 18.684 401.877 18.7332 402.074 18.7613C402.284 18.7894 402.516 18.8035 402.769 18.8035C403.261 18.8035 403.648 18.6419 403.929 18.3186C404.21 18.0095 404.35 17.5246 404.35 16.8641V5.79704H408.145V16.4003C408.145 17.4825 408.067 18.41 407.913 19.1829C407.772 19.9699 407.512 20.6164 407.133 21.1223C406.753 21.6282 406.24 22.0006 405.594 22.2395C404.962 22.4785 404.154 22.5979 403.17 22.5979Z" fill="black"/>
<path d="M413.864 0.864286H417.659V17.9603H413.864V0.864286Z" fill="black"/>
<path d="M421.504 14.1659H428.524V11.9946C428.524 11.2779 428.369 10.7157 428.06 10.3082C427.877 10.0693 427.652 9.89361 427.385 9.78118C427.132 9.6547 426.802 9.59146 426.395 9.59146H425.235V5.79704H426.036C427.118 5.79704 428.074 5.93054 428.903 6.19756C429.746 6.46457 430.435 6.91428 430.969 7.54669C431.503 8.17909 431.861 8.88176 432.044 9.6547C432.227 10.4136 432.318 11.306 432.318 12.3319V17.9603H421.504V14.1659Z" fill="black"/>
<path d="M440.418 22.4714C439.561 22.4714 438.872 22.2817 438.352 21.9023C437.846 21.5228 437.593 20.8342 437.593 19.8364V18.8035H442.273V20.5531H439.575C439.575 20.8623 439.652 21.1012 439.807 21.2699C439.961 21.4385 440.221 21.5228 440.587 21.5228H441.599V22.4714H440.418ZM438.036 0.864286H441.83V17.9603H438.036V0.864286Z" fill="black"/>
<path d="M4.13577 46.8615C4.79979 46.8615 5.40585 46.8088 5.95393 46.7034C6.51255 46.598 6.98686 46.4083 7.37684 46.1342C7.77736 45.8496 8.08829 45.4649 8.30963 44.9801C8.53098 44.4847 8.64165 43.8523 8.64165 43.0829C8.64165 42.3872 8.53625 41.8075 8.32544 41.3438C8.11464 40.88 7.81952 40.5111 7.44008 40.237C7.06064 39.963 6.59687 39.768 6.04879 39.6521C5.51125 39.5361 4.91046 39.4782 4.24644 39.4782H3.47174V46.8615H4.13577ZM0.546875 36.7588H4.1832C5.25829 36.7588 6.25432 36.8906 7.17131 37.1541C8.09883 37.4176 8.89988 37.8128 9.57444 38.3398C10.249 38.8668 10.776 39.5256 11.1555 40.3161C11.5349 41.1066 11.7246 42.0289 11.7246 43.0829C11.7246 44.1158 11.5402 45.038 11.1713 45.8496C10.8129 46.6507 10.307 47.3305 9.65349 47.8891C9.00001 48.4372 8.22004 48.8588 7.3136 49.1539C6.40715 49.4385 5.41112 49.5808 4.32549 49.5808H0.546875V36.7588Z" fill="black"/>
<path d="M13.7014 36.7588H22.2704V39.4782H16.6262V41.6758H21.7487V44.4109H16.6262V46.8615H22.2863V49.5808H13.7014V36.7588Z" fill="black"/>
<path d="M27.5111 45.1066V49.5808H24.5863V36.7588H29.7087C30.5414 36.7588 31.2634 36.8748 31.8747 37.1066C32.486 37.3385 32.9867 37.6495 33.3767 38.0394C33.7667 38.4189 34.0565 38.851 34.2462 39.3359C34.4359 39.8207 34.5308 40.3161 34.5308 40.822C34.5308 41.3806 34.4307 41.9182 34.2304 42.4346C34.0302 42.9406 33.7298 43.3938 33.3292 43.7943C32.9287 44.1948 32.4228 44.5163 31.8115 44.7587C31.2107 44.9906 30.5098 45.1066 29.7087 45.1066H27.5111ZM27.5111 39.4782V42.3872H29.1079C29.4452 42.3872 29.7562 42.3714 30.0407 42.3398C30.3359 42.2976 30.5836 42.2238 30.7838 42.1184C30.9946 42.0025 31.158 41.8497 31.2739 41.66C31.3899 41.4597 31.4478 41.2067 31.4478 40.9011C31.4478 40.353 31.2476 39.9788 30.8471 39.7786C30.4465 39.5783 29.8668 39.4782 29.1079 39.4782H27.5111Z" fill="black"/>
<path d="M46.4824 49.5808H43.4785L42.6089 47.0512H37.5971L36.7434 49.5808H33.7394L38.3086 36.7588H41.9133L46.4824 49.5808ZM38.5141 44.316H41.6919L40.1109 39.6363L38.5141 44.316Z" fill="black"/>
<path d="M52.4691 44.8062H50.8248V49.5808H47.9V36.7588H53.0224C53.8762 36.7588 54.6035 36.8748 55.2042 37.1066C55.8156 37.3385 56.3109 37.6442 56.6904 38.0236C57.0804 38.4031 57.365 38.8352 57.5441 39.3201C57.7339 39.7944 57.8287 40.2845 57.8287 40.7904C57.8287 41.1698 57.7813 41.5387 57.6864 41.8971C57.6021 42.2449 57.4598 42.5769 57.2596 42.8931C57.0698 43.1988 56.8221 43.4834 56.5165 43.7469C56.2214 43.9998 55.863 44.2106 55.4414 44.3793L58.6508 49.5808H55.3782L52.4691 44.8062ZM50.8248 39.4782V42.3082H52.4059C52.7537 42.3082 53.0699 42.2924 53.3545 42.2607C53.639 42.2291 53.8815 42.1606 54.0817 42.0552C54.2925 41.9498 54.4559 41.8022 54.5718 41.6125C54.6878 41.4228 54.7457 41.1751 54.7457 40.8694C54.7457 40.3214 54.5402 39.9525 54.1292 39.7627C53.7286 39.573 53.1542 39.4782 52.4059 39.4782H50.8248Z" fill="black"/>
<path d="M63.068 39.4782H58.9732V36.7588H70.0877V39.4782H65.9929V49.5808H63.068V39.4782Z" fill="black"/>
<path d="M76.9082 49.5808L74.679 39.1303V49.5808H71.7541V36.7588H76.6236L78.584 47.067L80.5761 36.7588H85.414V49.5808H82.4891V39.1303L80.2757 49.5808H76.9082Z" fill="black"/>
<path d="M88.259 36.7588H96.828V39.4782H91.1838V41.6758H96.3063V44.4109H91.1838V46.8615H96.8438V49.5808H88.259V36.7588Z" fill="black"/>
<path d="M102.005 39.5098V49.5808H99.1438V36.7588H103.492L107.096 46.8299V36.7588H109.942V49.5808H105.61L102.005 39.5098Z" fill="black"/>
<path d="M115.701 39.4782H111.607V36.7588H122.721V39.4782H118.626V49.5808H115.701V39.4782Z" fill="black"/>
<path d="M138.614 43.1461C138.614 42.5769 138.524 42.0552 138.345 41.5809C138.176 41.1066 137.928 40.7008 137.602 40.3635C137.285 40.0157 136.901 39.7522 136.448 39.573C136.005 39.3833 135.515 39.2884 134.977 39.2884C134.44 39.2884 133.944 39.3833 133.491 39.573C133.048 39.7522 132.664 40.0157 132.337 40.3635C132.021 40.7008 131.773 41.1066 131.594 41.5809C131.425 42.0552 131.341 42.5769 131.341 43.1461C131.341 43.7153 131.425 44.237 131.594 44.7113C131.773 45.1856 132.021 45.5967 132.337 45.9445C132.664 46.2818 133.048 46.5453 133.491 46.735C133.944 46.9142 134.44 47.0038 134.977 47.0038C135.515 47.0038 136.005 46.9142 136.448 46.735C136.901 46.5453 137.285 46.2818 137.602 45.9445C137.928 45.5967 138.176 45.1856 138.345 44.7113C138.524 44.237 138.614 43.7153 138.614 43.1461ZM141.696 43.1461C141.696 44.0736 141.533 44.9432 141.206 45.7548C140.88 46.5558 140.421 47.2567 139.831 47.8575C139.241 48.4583 138.534 48.9326 137.712 49.2804C136.89 49.6177 135.979 49.7863 134.977 49.7863C133.976 49.7863 133.064 49.6177 132.242 49.2804C131.42 48.9326 130.714 48.4583 130.123 47.8575C129.533 47.2567 129.075 46.5558 128.748 45.7548C128.421 44.9432 128.258 44.0736 128.258 43.1461C128.258 42.2186 128.421 41.3543 128.748 40.5532C129.075 39.7417 129.533 39.0355 130.123 38.4347C130.714 37.8339 131.42 37.3649 132.242 37.0276C133.064 36.6798 133.976 36.5059 134.977 36.5059C135.979 36.5059 136.89 36.6798 137.712 37.0276C138.534 37.3649 139.241 37.8339 139.831 38.4347C140.421 39.0355 140.88 39.7417 141.206 40.5532C141.533 41.3543 141.696 42.2186 141.696 43.1461Z" fill="black"/>
<path d="M143.672 49.5808V36.7588H152.272V39.4782H146.596V41.6758H151.735V44.4109H146.596V49.5808H143.672Z" fill="black"/>
<path d="M158.756 49.5808V36.7588H161.681V49.5808H158.756Z" fill="black"/>
<path d="M167.392 39.5098V49.5808H164.53V36.7588H168.878L172.483 46.8299V36.7588H175.329V49.5808H170.997L167.392 39.5098Z" fill="black"/>
<path d="M181.088 39.4782H176.993V36.7588H188.108V39.4782H184.013V49.5808H181.088V39.4782Z" fill="black"/>
<path d="M189.774 36.7588H198.343V39.4782H192.699V41.6758H197.821V44.4109H192.699V46.8615H198.359V49.5808H189.774V36.7588Z" fill="black"/>
<path d="M205.228 44.8062H203.584V49.5808H200.659V36.7588H205.781C206.635 36.7588 207.362 36.8748 207.963 37.1066C208.574 37.3385 209.07 37.6442 209.449 38.0236C209.839 38.4031 210.124 38.8352 210.303 39.3201C210.493 39.7944 210.588 40.2845 210.588 40.7904C210.588 41.1698 210.54 41.5387 210.445 41.8971C210.361 42.2449 210.219 42.5769 210.018 42.8931C209.829 43.1988 209.581 43.4834 209.275 43.7469C208.98 43.9998 208.622 44.2106 208.2 44.3793L211.41 49.5808H208.137L205.228 44.8062ZM203.584 39.4782V42.3082H205.165C205.513 42.3082 205.829 42.2924 206.113 42.2607C206.398 42.2291 206.64 42.1606 206.841 42.0552C207.051 41.9498 207.215 41.8022 207.331 41.6125C207.447 41.4228 207.505 41.1751 207.505 40.8694C207.505 40.3214 207.299 39.9525 206.888 39.7627C206.488 39.573 205.913 39.4782 205.165 39.4782H203.584Z" fill="black"/>
<path d="M216.088 39.5098V49.5808H213.227V36.7588H217.574L221.179 46.8299V36.7588H224.025V49.5808H219.693L216.088 39.5098Z" fill="black"/>
<path d="M238.041 49.5808H235.037L234.167 47.0512H229.156L228.302 49.5808H225.298L229.867 36.7588H233.472L238.041 49.5808ZM230.073 44.316H233.25L231.669 39.6363L230.073 44.316Z" fill="black"/>
<path d="M241.024 39.4782H236.929V36.7588H248.044V39.4782H243.949V49.5808H241.024V39.4782Z" fill="black"/>
<path d="M249.71 49.5808V36.7588H252.635V49.5808H249.71Z" fill="black"/>
<path d="M264.971 43.1461C264.971 42.5769 264.881 42.0552 264.702 41.5809C264.533 41.1066 264.286 40.7008 263.959 40.3635C263.643 40.0157 263.258 39.7522 262.805 39.573C262.362 39.3833 261.872 39.2884 261.334 39.2884C260.797 39.2884 260.302 39.3833 259.848 39.573C259.406 39.7522 259.021 40.0157 258.694 40.3635C258.378 40.7008 258.13 41.1066 257.951 41.5809C257.782 42.0552 257.698 42.5769 257.698 43.1461C257.698 43.7153 257.782 44.237 257.951 44.7113C258.13 45.1856 258.378 45.5967 258.694 45.9445C259.021 46.2818 259.406 46.5453 259.848 46.735C260.302 46.9142 260.797 47.0038 261.334 47.0038C261.872 47.0038 262.362 46.9142 262.805 46.735C263.258 46.5453 263.643 46.2818 263.959 45.9445C264.286 45.5967 264.533 45.1856 264.702 44.7113C264.881 44.237 264.971 43.7153 264.971 43.1461ZM268.054 43.1461C268.054 44.0736 267.89 44.9432 267.564 45.7548C267.237 46.5558 266.778 47.2567 266.188 47.8575C265.598 48.4583 264.892 48.9326 264.07 49.2804C263.247 49.6177 262.336 49.7863 261.334 49.7863C260.333 49.7863 259.421 49.6177 258.599 49.2804C257.777 48.9326 257.071 48.4583 256.481 47.8575C255.891 47.2567 255.432 46.5558 255.105 45.7548C254.779 44.9432 254.615 44.0736 254.615 43.1461C254.615 42.2186 254.779 41.3543 255.105 40.5532C255.432 39.7417 255.891 39.0355 256.481 38.4347C257.071 37.8339 257.777 37.3649 258.599 37.0276C259.421 36.6798 260.333 36.5059 261.334 36.5059C262.336 36.5059 263.247 36.6798 264.07 37.0276C264.892 37.3649 265.598 37.8339 266.188 38.4347C266.778 39.0355 267.237 39.7417 267.564 40.5532C267.89 41.3543 268.054 42.2186 268.054 43.1461Z" fill="black"/>
<path d="M272.89 39.5098V49.5808H270.029V36.7588H274.377L277.981 46.8299V36.7588H280.827V49.5808H276.495L272.89 39.5098Z" fill="black"/>
<path d="M294.843 49.5808H291.839L290.97 47.0512H285.958L285.104 49.5808H282.1L286.669 36.7588H290.274L294.843 49.5808ZM286.875 44.316H290.053L288.472 39.6363L286.875 44.316Z" fill="black"/>
<path d="M299.201 46.8615H304.83V49.5808H296.261V36.7588H299.201V46.8615Z" fill="black"/>
<path d="M317.275 39.2726C316.769 39.2726 316.289 39.3464 315.836 39.494C315.383 39.6415 314.982 39.8734 314.634 40.1896C314.297 40.4953 314.028 40.8958 313.828 41.3912C313.628 41.876 313.528 42.461 313.528 43.1461C313.528 43.8312 313.628 44.4162 313.828 44.901C314.028 45.3859 314.297 45.7864 314.634 46.1026C314.982 46.4188 315.383 46.6507 315.836 46.7982C316.289 46.9458 316.769 47.0196 317.275 47.0196C317.865 47.0196 318.413 46.9353 318.919 46.7666C319.425 46.5874 319.899 46.3556 320.342 46.071L321.448 48.6638C320.9 49.0011 320.247 49.2752 319.488 49.486C318.74 49.6862 317.96 49.7863 317.148 49.7863C316.126 49.7863 315.198 49.623 314.366 49.2962C313.543 48.9589 312.842 48.4952 312.263 47.9049C311.683 47.3147 311.235 46.6138 310.919 45.8022C310.603 44.9906 310.445 44.1052 310.445 43.1461C310.445 42.187 310.603 41.3016 310.919 40.49C311.235 39.6679 311.683 38.967 312.263 38.3873C312.842 37.797 313.543 37.3385 314.366 37.0118C315.198 36.6745 316.126 36.5059 317.148 36.5059C317.96 36.5059 318.74 36.6113 319.488 36.8221C320.247 37.0223 320.9 37.2911 321.448 37.6284L320.342 40.2212C319.899 39.9367 319.425 39.71 318.919 39.5414C318.413 39.3622 317.865 39.2726 317.275 39.2726Z" fill="black"/>
<path d="M332.272 43.1461C332.272 42.5769 332.182 42.0552 332.003 41.5809C331.834 41.1066 331.587 40.7008 331.26 40.3635C330.944 40.0157 330.559 39.7522 330.106 39.573C329.663 39.3833 329.173 39.2884 328.635 39.2884C328.098 39.2884 327.603 39.3833 327.149 39.573C326.707 39.7522 326.322 40.0157 325.995 40.3635C325.679 40.7008 325.431 41.1066 325.252 41.5809C325.083 42.0552 324.999 42.5769 324.999 43.1461C324.999 43.7153 325.083 44.237 325.252 44.7113C325.431 45.1856 325.679 45.5967 325.995 45.9445C326.322 46.2818 326.707 46.5453 327.149 46.735C327.603 46.9142 328.098 47.0038 328.635 47.0038C329.173 47.0038 329.663 46.9142 330.106 46.735C330.559 46.5453 330.944 46.2818 331.26 45.9445C331.587 45.5967 331.834 45.1856 332.003 44.7113C332.182 44.237 332.272 43.7153 332.272 43.1461ZM335.355 43.1461C335.355 44.0736 335.191 44.9432 334.865 45.7548C334.538 46.5558 334.079 47.2567 333.489 47.8575C332.899 48.4583 332.193 48.9326 331.371 49.2804C330.548 49.6177 329.637 49.7863 328.635 49.7863C327.634 49.7863 326.722 49.6177 325.9 49.2804C325.078 48.9326 324.372 48.4583 323.782 47.8575C323.192 47.2567 322.733 46.5558 322.406 45.7548C322.08 44.9432 321.916 44.0736 321.916 43.1461C321.916 42.2186 322.08 41.3543 322.406 40.5532C322.733 39.7417 323.192 39.0355 323.782 38.4347C324.372 37.8339 325.078 37.3649 325.9 37.0276C326.722 36.6798 327.634 36.5059 328.635 36.5059C329.637 36.5059 330.548 36.6798 331.371 37.0276C332.193 37.3649 332.899 37.8339 333.489 38.4347C334.079 39.0355 334.538 39.7417 334.865 40.5532C335.191 41.3543 335.355 42.2186 335.355 43.1461Z" fill="black"/>
<path d="M347.217 43.1461C347.217 42.5769 347.128 42.0552 346.948 41.5809C346.78 41.1066 346.532 40.7008 346.205 40.3635C345.889 40.0157 345.505 39.7522 345.051 39.573C344.609 39.3833 344.118 39.2884 343.581 39.2884C343.043 39.2884 342.548 39.3833 342.095 39.573C341.652 39.7522 341.267 40.0157 340.941 40.3635C340.624 40.7008 340.377 41.1066 340.198 41.5809C340.029 42.0552 339.945 42.5769 339.945 43.1461C339.945 43.7153 340.029 44.237 340.198 44.7113C340.377 45.1856 340.624 45.5967 340.941 45.9445C341.267 46.2818 341.652 46.5453 342.095 46.735C342.548 46.9142 343.043 47.0038 343.581 47.0038C344.118 47.0038 344.609 46.9142 345.051 46.735C345.505 46.5453 345.889 46.2818 346.205 45.9445C346.532 45.5967 346.78 45.1856 346.948 44.7113C347.128 44.237 347.217 43.7153 347.217 43.1461ZM350.3 43.1461C350.3 44.0736 350.137 44.9432 349.81 45.7548C349.483 46.5558 349.025 47.2567 348.435 47.8575C347.844 48.4583 347.138 48.9326 346.316 49.2804C345.494 49.6177 344.582 49.7863 343.581 49.7863C342.58 49.7863 341.668 49.6177 340.846 49.2804C340.024 48.9326 339.318 48.4583 338.727 47.8575C338.137 47.2567 337.678 46.5558 337.352 45.7548C337.025 44.9432 336.862 44.0736 336.862 43.1461C336.862 42.2186 337.025 41.3543 337.352 40.5532C337.678 39.7417 338.137 39.0355 338.727 38.4347C339.318 37.8339 340.024 37.3649 340.846 37.0276C341.668 36.6798 342.58 36.5059 343.581 36.5059C344.582 36.5059 345.494 36.6798 346.316 37.0276C347.138 37.3649 347.844 37.8339 348.435 38.4347C349.025 39.0355 349.483 39.7417 349.81 40.5532C350.137 41.3543 350.3 42.2186 350.3 43.1461Z" fill="black"/>
<path d="M355.2 45.1066V49.5808H352.275V36.7588H357.398C358.23 36.7588 358.952 36.8748 359.564 37.1066C360.175 37.3385 360.676 37.6495 361.066 38.0394C361.456 38.4189 361.746 38.851 361.935 39.3359C362.125 39.8207 362.22 40.3161 362.22 40.822C362.22 41.3806 362.12 41.9182 361.919 42.4346C361.719 42.9406 361.419 43.3938 361.018 43.7943C360.618 44.1948 360.112 44.5163 359.5 44.7587C358.9 44.9906 358.199 45.1066 357.398 45.1066H355.2ZM355.2 39.4782V42.3872H356.797C357.134 42.3872 357.445 42.3714 357.73 42.3398C358.025 42.2976 358.273 42.2238 358.473 42.1184C358.684 42.0025 358.847 41.8497 358.963 41.66C359.079 41.4597 359.137 41.2067 359.137 40.9011C359.137 40.353 358.937 39.9788 358.536 39.7786C358.136 39.5783 357.556 39.4782 356.797 39.4782H355.2Z" fill="black"/>
<path d="M363.793 36.7588H372.362V39.4782H366.718V41.6758H371.841V44.4109H366.718V46.8615H372.378V49.5808H363.793V36.7588Z" fill="black"/>
<path d="M379.247 44.8062H377.603V49.5808H374.678V36.7588H379.801C380.654 36.7588 381.382 36.8748 381.982 37.1066C382.594 37.3385 383.089 37.6442 383.468 38.0236C383.858 38.4031 384.143 38.8352 384.322 39.3201C384.512 39.7944 384.607 40.2845 384.607 40.7904C384.607 41.1698 384.559 41.5387 384.465 41.8971C384.38 42.2449 384.238 42.5769 384.038 42.8931C383.848 43.1988 383.6 43.4834 383.295 43.7469C382.999 43.9998 382.641 44.2106 382.219 44.3793L385.429 49.5808H382.156L379.247 44.8062ZM377.603 39.4782V42.3082H379.184C379.532 42.3082 379.848 42.2924 380.133 42.2607C380.417 42.2291 380.66 42.1606 380.86 42.0552C381.071 41.9498 381.234 41.8022 381.35 41.6125C381.466 41.4228 381.524 41.1751 381.524 40.8694C381.524 40.3214 381.318 39.9525 380.907 39.7627C380.507 39.573 379.932 39.4782 379.184 39.4782H377.603Z" fill="black"/>
<path d="M398.566 49.5808H395.562L394.692 47.0512H389.681L388.827 49.5808H385.823L390.392 36.7588H393.997L398.566 49.5808ZM390.598 44.316H393.775L392.194 39.6363L390.598 44.316Z" fill="black"/>
<path d="M401.549 39.4782H397.454V36.7588H408.569V39.4782H404.474V49.5808H401.549V39.4782Z" fill="black"/>
<path d="M410.235 49.5808V36.7588H413.16V49.5808H410.235Z" fill="black"/>
<path d="M425.496 43.1461C425.496 42.5769 425.406 42.0552 425.227 41.5809C425.058 41.1066 424.811 40.7008 424.484 40.3635C424.168 40.0157 423.783 39.7522 423.33 39.573C422.887 39.3833 422.397 39.2884 421.859 39.2884C421.322 39.2884 420.827 39.3833 420.373 39.573C419.931 39.7522 419.546 40.0157 419.219 40.3635C418.903 40.7008 418.655 41.1066 418.476 41.5809C418.307 42.0552 418.223 42.5769 418.223 43.1461C418.223 43.7153 418.307 44.237 418.476 44.7113C418.655 45.1856 418.903 45.5967 419.219 45.9445C419.546 46.2818 419.931 46.5453 420.373 46.735C420.827 46.9142 421.322 47.0038 421.859 47.0038C422.397 47.0038 422.887 46.9142 423.33 46.735C423.783 46.5453 424.168 46.2818 424.484 45.9445C424.811 45.5967 425.058 45.1856 425.227 44.7113C425.406 44.237 425.496 43.7153 425.496 43.1461ZM428.579 43.1461C428.579 44.0736 428.415 44.9432 428.089 45.7548C427.762 46.5558 427.303 47.2567 426.713 47.8575C426.123 48.4583 425.417 48.9326 424.595 49.2804C423.772 49.6177 422.861 49.7863 421.859 49.7863C420.858 49.7863 419.946 49.6177 419.124 49.2804C418.302 48.9326 417.596 48.4583 417.006 47.8575C416.416 47.2567 415.957 46.5558 415.63 45.7548C415.304 44.9432 415.14 44.0736 415.14 43.1461C415.14 42.2186 415.304 41.3543 415.63 40.5532C415.957 39.7417 416.416 39.0355 417.006 38.4347C417.596 37.8339 418.302 37.3649 419.124 37.0276C419.946 36.6798 420.858 36.5059 421.859 36.5059C422.861 36.5059 423.772 36.6798 424.595 37.0276C425.417 37.3649 426.123 37.8339 426.713 38.4347C427.303 39.0355 427.762 39.7417 428.089 40.5532C428.415 41.3543 428.579 42.2186 428.579 43.1461Z" fill="black"/>
<path d="M433.415 39.5098V49.5808H430.554V36.7588H434.902L438.506 46.8299V36.7588H441.352V49.5808H437.02L433.415 39.5098Z" fill="black"/>
</svg>
