<svg width="26" height="26" viewBox="0 0 26 26" fill="none" xmlns="http://www.w3.org/2000/svg">
<path d="M13.0125 0.5C19.9125 0.5 25.5 6.1 25.5 13C25.5 19.9 19.9125 25.5 13.0125 25.5C6.1 25.5 0.5 19.9 0.5 13C0.5 6.1 6.1 0.5 13.0125 0.5ZM4.35 8H8.0375C8.42872 6.45182 9.00803 4.95737 9.7625 3.55C7.48236 4.335 5.56104 5.91465 4.35 8ZM13 3.05C11.9625 4.55 11.15 6.2125 10.6125 8H15.3875C14.85 6.2125 14.0375 4.55 13 3.05ZM22.675 15.5C22.875 14.7 23 13.8625 23 13C23 12.1375 22.875 11.3 22.675 10.5H18.45C18.55 11.325 18.625 12.15 18.625 13C18.625 13.85 18.55 14.675 18.45 15.5H22.675ZM21.65 18H17.9625C17.5625 19.5625 16.9875 21.0625 16.2375 22.45C18.52 21.6693 20.4427 20.0885 21.65 18ZM17.9625 8H21.65C20.4427 5.91147 18.52 4.33071 16.2375 3.55C16.992 4.95737 17.5713 6.45182 17.9625 8ZM13 22.95C14.0375 21.45 14.85 19.7875 15.3875 18H10.6125C11.15 19.7875 11.9625 21.45 13 22.95ZM10.075 15.5H15.925C16.0375 14.675 16.125 13.85 16.125 13C16.125 12.15 16.0375 11.3125 15.925 10.5H10.075C9.9625 11.3125 9.875 12.15 9.875 13C9.875 13.85 9.9625 14.675 10.075 15.5ZM9.7625 22.45C9.0125 21.0625 8.4375 19.5625 8.0375 18H4.35C5.56104 20.0853 7.48236 21.665 9.7625 22.45ZM7.55 15.5C7.45 14.675 7.375 13.85 7.375 13C7.375 12.15 7.45 11.325 7.55 10.5H3.325C3.125 11.3 3 12.1375 3 13C3 13.8625 3.125 14.7 3.325 15.5H7.55Z" fill="#BA915F"/>
</svg>
