<svg width="39" height="39" viewBox="0 0 39 39" fill="none" xmlns="http://www.w3.org/2000/svg">
<path d="M16.25 0.5C13.8631 0.5 11.5739 1.44821 9.88604 3.13604C8.19821 4.82387 7.25 7.11305 7.25 9.5C7.25 11.8869 8.19821 14.1761 9.88604 15.864C11.5739 17.5518 13.8631 18.5 16.25 18.5C18.6369 18.5 20.9261 17.5518 22.614 15.864C24.3018 14.1761 25.25 11.8869 25.25 9.5C25.25 7.11305 24.3018 4.82387 22.614 3.13604C20.9261 1.44821 18.6369 0.5 16.25 0.5ZM9.5 9.5C9.5 7.70979 10.2112 5.9929 11.477 4.72703C12.7429 3.46116 14.4598 2.75 16.25 2.75C18.0402 2.75 19.7571 3.46116 21.023 4.72703C22.2888 5.9929 23 7.70979 23 9.5C23 11.2902 22.2888 13.0071 21.023 14.273C19.7571 15.5388 18.0402 16.25 16.25 16.25C14.4598 16.25 12.7429 15.5388 11.477 14.273C10.2112 13.0071 9.5 11.2902 9.5 9.5ZM5.02025 20.75C4.4276 20.7473 3.84026 20.8618 3.29196 21.0867C2.74365 21.3117 2.24518 21.6427 1.82517 22.0608C1.40516 22.479 1.07188 22.9759 0.844469 23.5232C0.617058 24.0705 0.499994 24.6573 0.5 25.25C0.5 29.0548 2.37425 31.9235 5.30375 33.7933C8.18825 35.6315 12.0763 36.5 16.25 36.5V34.25C12.3462 34.25 8.92175 33.431 6.51425 31.8943C4.15175 30.3867 2.75 28.1975 2.75 25.25C2.75 24.0058 3.758 23 5.02025 23H16.853C17.2472 22.3172 17.8138 21.75 18.4962 21.3552C19.1785 20.9603 19.9526 20.7516 20.741 20.75H5.02025ZM28.6453 31.8358L18.5292 25.934C18.6362 25.1224 19.0346 24.3773 19.6501 23.8375C20.2656 23.2977 21.0563 23.0001 21.875 23H35.375C36.2701 23 37.1285 23.3556 37.7615 23.9885C38.3944 24.6214 38.75 25.4799 38.75 26.375V26.3953L28.6453 31.8358ZM29.1583 34.115L38.75 28.9513V35.375C38.75 36.2701 38.3944 37.1285 37.7615 37.7615C37.1285 38.3944 36.2701 38.75 35.375 38.75H21.875C20.9799 38.75 20.1214 38.3944 19.4885 37.7615C18.8556 37.1285 18.5 36.2701 18.5 35.375V28.5215L28.058 34.097C28.2248 34.1944 28.4138 34.2472 28.6069 34.2503C28.8 34.2535 28.9884 34.2069 29.1583 34.115Z" fill="#8A1538"/>
</svg>
