<svg width="34" height="26" viewBox="0 0 34 26" fill="none" xmlns="http://www.w3.org/2000/svg">
<path d="M10.3307 22.3327V25.6661H33.6641V22.3327C33.6641 22.3327 33.6641 15.6661 21.9974 15.6661C10.3307 15.6661 10.3307 22.3327 10.3307 22.3327ZM16.1641 6.49941C16.1641 5.34569 16.5062 4.21787 17.1472 3.25858C17.7881 2.2993 18.6992 1.55162 19.7651 1.11011C20.831 0.668602 22.0039 0.553083 23.1354 0.778163C24.267 1.00324 25.3064 1.55882 26.1222 2.37462C26.938 3.19043 27.4936 4.22983 27.7186 5.36138C27.9437 6.49294 27.8282 7.66583 27.3867 8.73173C26.9452 9.79763 26.1975 10.7087 25.2382 11.3497C24.2789 11.9906 23.1511 12.3327 21.9974 12.3327C20.4503 12.3327 18.9666 11.7182 17.8726 10.6242C16.7786 9.53024 16.1641 8.04651 16.1641 6.49941ZM10.4307 15.6661C9.40615 16.459 8.56777 17.4668 7.9746 18.6186C7.38143 19.7704 7.04787 21.0382 6.99739 22.3327V25.6661H0.330723V22.3327C0.330723 22.3327 0.330723 16.2827 10.4307 15.6661ZM11.9974 0.666077C13.1444 0.660742 14.2661 1.00363 15.2141 1.64941C14.2017 3.06397 13.6573 4.75989 13.6573 6.49941C13.6573 8.23893 14.2017 9.93485 15.2141 11.3494C14.2661 11.9952 13.1444 12.3381 11.9974 12.3327C10.4503 12.3327 8.96656 11.7182 7.8726 10.6242C6.77864 9.53024 6.16406 8.04651 6.16406 6.49941C6.16406 4.95231 6.77864 3.46858 7.8726 2.37462C8.96656 1.28066 10.4503 0.666077 11.9974 0.666077Z" fill="#8A1538"/>
</svg>
