<svg width="16" height="17" viewBox="0 0 16 17" fill="none" xmlns="http://www.w3.org/2000/svg">
<path fill-rule="evenodd" clip-rule="evenodd" d="M13.0938 7.54125V6C13.0938 4.65734 12.5604 3.36967 11.611 2.42027C10.6616 1.47087 9.37391 0.9375 8.03125 0.9375C6.68859 0.9375 5.40093 1.47087 4.45152 2.42027C3.50212 3.36967 2.96875 4.65734 2.96875 6V7.54125C2.1325 7.6035 1.58875 7.761 1.1905 8.15925C0.53125 8.81775 0.53125 9.879 0.53125 12C0.53125 14.121 0.53125 15.1823 1.1905 15.8407C1.849 16.5 2.91025 16.5 5.03125 16.5H11.0312C13.1523 16.5 14.2135 16.5 14.872 15.8407C15.5313 15.1823 15.5312 14.121 15.5312 12C15.5312 9.879 15.5313 8.81775 14.872 8.15925C14.4745 7.761 13.93 7.6035 13.0938 7.54125ZM11.9688 6C11.9688 4.95571 11.5539 3.95419 10.8155 3.21577C10.0771 2.47734 9.07554 2.0625 8.03125 2.0625C6.98696 2.0625 5.98544 2.47734 5.24702 3.21577C4.50859 3.95419 4.09375 4.95571 4.09375 6V7.503C4.381 7.5 4.693 7.5 5.03125 7.5H11.0312C11.3703 7.5 11.6815 7.5 11.9688 7.503V6ZM11.0312 12.75C10.8323 12.75 10.6416 12.671 10.5009 12.5303C10.3603 12.3897 10.2812 12.1989 10.2812 12C10.2812 11.8011 10.3603 11.6103 10.5009 11.4697C10.6416 11.329 10.8323 11.25 11.0312 11.25C11.2302 11.25 11.4209 11.329 11.5616 11.4697C11.7022 11.6103 11.7812 11.8011 11.7812 12C11.7812 12.1989 11.7022 12.3897 11.5616 12.5303C11.4209 12.671 11.2302 12.75 11.0312 12.75ZM8.03125 12.75C7.83234 12.75 7.64157 12.671 7.50092 12.5303C7.36027 12.3897 7.28125 12.1989 7.28125 12C7.28125 11.8011 7.36027 11.6103 7.50092 11.4697C7.64157 11.329 7.83234 11.25 8.03125 11.25C8.23016 11.25 8.42093 11.329 8.56158 11.4697C8.70223 11.6103 8.78125 11.8011 8.78125 12C8.78125 12.1989 8.70223 12.3897 8.56158 12.5303C8.42093 12.671 8.23016 12.75 8.03125 12.75ZM4.28125 12C4.28125 12.1989 4.36027 12.3897 4.50092 12.5303C4.64157 12.671 4.83234 12.75 5.03125 12.75C5.23016 12.75 5.42093 12.671 5.56158 12.5303C5.70223 12.3897 5.78125 12.1989 5.78125 12C5.78125 11.8011 5.70223 11.6103 5.56158 11.4697C5.42093 11.329 5.23016 11.25 5.03125 11.25C4.83234 11.25 4.64157 11.329 4.50092 11.4697C4.36027 11.6103 4.28125 11.8011 4.28125 12Z" fill="#BA915F"/>
</svg>
