<svg width="19" height="18" viewBox="0 0 19 18" fill="none" xmlns="http://www.w3.org/2000/svg">
<g clip-path="url(#clip0_2_111)">
<path d="M3.82249 2.43335C3.7731 2.37767 3.71314 2.33234 3.64609 2.3C3.57905 2.26766 3.50625 2.24895 3.43193 2.24495C3.3576 2.24095 3.28321 2.25175 3.21309 2.27671C3.14296 2.30167 3.07849 2.3403 3.0234 2.39036C2.96831 2.44042 2.92371 2.50092 2.89218 2.56835C2.86064 2.63577 2.8428 2.70879 2.8397 2.78316C2.83659 2.85753 2.84828 2.93178 2.87407 3.0016C2.89987 3.07142 2.93927 3.13543 2.98999 3.18991L4.34281 4.67843C1.78906 6.24569 0.690775 8.66163 0.642259 8.77132C0.610276 8.84326 0.59375 8.92111 0.59375 8.99983C0.59375 9.07856 0.610276 9.15641 0.642259 9.22835C0.666868 9.2839 1.26242 10.6044 2.5864 11.9284C4.35054 13.6918 6.57874 14.6241 9.03124 14.6241C10.2917 14.6313 11.5394 14.3718 12.6924 13.8626L14.2393 15.5649C14.2887 15.6206 14.3486 15.6659 14.4157 15.6983C14.4827 15.7306 14.5555 15.7493 14.6299 15.7533C14.7042 15.7573 14.7786 15.7465 14.8487 15.7216C14.9188 15.6966 14.9833 15.658 15.0384 15.6079C15.0935 15.5578 15.1381 15.4973 15.1696 15.4299C15.2011 15.3625 15.219 15.2895 15.2221 15.2151C15.2252 15.1407 15.2135 15.0665 15.1877 14.9967C15.1619 14.9268 15.1225 14.8628 15.0718 14.8083L3.82249 2.43335ZM7.15038 7.76585L10.0803 10.9897C9.63909 11.2218 9.13328 11.3008 8.6423 11.2143C8.15131 11.1278 7.70297 10.8806 7.36766 10.5117C7.03236 10.1428 6.82908 9.6729 6.78975 9.17591C6.75043 8.67892 6.87728 8.18294 7.15038 7.76585ZM9.03124 13.4991C6.86702 13.4991 4.97632 12.7123 3.41117 11.1612C2.76876 10.5228 2.22237 9.79448 1.78906 8.99913C2.11882 8.38108 3.1714 6.6514 5.11835 5.5271L6.38398 6.91577C5.894 7.54331 5.64164 8.32387 5.67152 9.11949C5.7014 9.9151 6.0116 10.6745 6.54727 11.2636C7.08294 11.8526 7.8096 12.2333 8.59881 12.3383C9.38803 12.4434 10.189 12.266 10.8601 11.8376L11.8958 12.9767C10.9817 13.3274 10.0103 13.5046 9.03124 13.4991ZM9.45312 6.78921C9.30655 6.76124 9.17709 6.67619 9.09322 6.55276C9.00936 6.42934 8.97796 6.27766 9.00593 6.13108C9.0339 5.98451 9.11896 5.85505 9.24238 5.77119C9.3658 5.68733 9.51748 5.65593 9.66406 5.6839C10.381 5.82288 11.0337 6.1899 11.525 6.73021C12.0163 7.27052 12.3197 7.95516 12.3901 8.68202C12.404 8.83055 12.3583 8.97852 12.2631 9.09337C12.1679 9.20822 12.0309 9.28055 11.8824 9.29444C11.8649 9.29554 11.8472 9.29554 11.8297 9.29444C11.6891 9.29505 11.5534 9.24298 11.4493 9.1485C11.3451 9.05401 11.2802 8.92397 11.2672 8.78398C11.2198 8.3005 11.0177 7.84522 10.6909 7.48583C10.364 7.12643 9.92994 6.88212 9.45312 6.78921ZM17.4181 9.22835C17.3886 9.29444 16.6763 10.8716 15.0725 12.308C15.0177 12.3587 14.9534 12.3979 14.8832 12.4235C14.8131 12.449 14.7386 12.4603 14.6641 12.4568C14.5896 12.4533 14.5165 12.435 14.4491 12.4029C14.3817 12.3708 14.3214 12.3257 14.2716 12.2701C14.2218 12.2145 14.1836 12.1496 14.1592 12.079C14.1348 12.0085 14.1246 11.9339 14.1293 11.8594C14.1341 11.7849 14.1535 11.7121 14.1867 11.6453C14.2198 11.5784 14.2659 11.5188 14.3223 11.4699C15.1091 10.763 15.77 9.92749 16.2769 8.99913C15.8427 8.20306 15.2951 7.47429 14.6513 6.83562C13.0862 5.28593 11.1955 4.49913 9.03124 4.49913C8.57524 4.49858 8.11995 4.53551 7.66999 4.60952C7.59682 4.62246 7.52181 4.62078 7.44929 4.60456C7.37678 4.58835 7.30819 4.55792 7.2475 4.51505C7.18681 4.47218 7.13521 4.41771 7.09569 4.35478C7.05617 4.29186 7.02951 4.22172 7.01725 4.14843C7.00499 4.07514 7.00737 4.00015 7.02425 3.92779C7.04114 3.85543 7.0722 3.78713 7.11563 3.72683C7.15906 3.66654 7.21401 3.61545 7.2773 3.57652C7.34059 3.53758 7.41097 3.51157 7.48437 3.49999C7.99566 3.41557 8.51303 3.37347 9.03124 3.37413C11.4837 3.37413 13.7119 4.30648 15.4761 6.07062C16.8001 7.3946 17.3956 8.71577 17.4202 8.77132C17.4522 8.84326 17.4687 8.92111 17.4687 8.99983C17.4687 9.07856 17.4522 9.15641 17.4202 9.22835H17.4181Z" fill="#BA915F"/>
</g>
<defs>
<clipPath id="clip0_2_111">
<rect width="18" height="18" fill="white" transform="translate(0.03125)"/>
</clipPath>
</defs>
</svg>
