<svg width="128" height="116" viewBox="0 0 128 116" fill="none" xmlns="http://www.w3.org/2000/svg">
<g clip-path="url(#clip0_2_124)">
<path d="M61.4716 0.246878C61.4005 0.738998 61.5071 2.91839 61.7205 5.69536L61.9338 8.43718H59.6227C56.8494 8.43718 56.1738 7.94506 56.1738 5.94142C56.1738 4.60567 56.1383 4.57051 54.9294 4.57051C53.6849 4.57051 53.6849 4.57051 53.7205 6.04688C53.8271 10.3002 55.2849 11.2493 60.9738 10.8626C62.8583 10.722 64.4583 10.5463 64.4938 10.476C64.5294 10.4057 64.3871 8.08567 64.2094 5.27355L63.8183 0.176575L62.6805 0.0711193C62.0405 0.000816345 61.5071 0.0711193 61.4716 0.246878Z" fill="black"/>
<path d="M72.2088 5.48413C71.8532 9.45625 71.8532 10.6866 72.1732 10.8975C72.3866 11.0381 73.7377 11.249 75.1955 11.3544C81.9866 11.952 94.8221 15.5023 95.6399 17.0841C96.2443 18.1738 98.3066 19.1229 99.6221 18.8417C101.933 18.3847 112.92 25.0284 120.209 31.2853L121.844 32.6562L123.267 31.6369C124.902 30.4417 125.862 28.7544 125.862 27.0672C125.862 25.7314 124.049 23.7278 122.52 23.3411C121.418 23.0599 121.347 23.095 121.098 24.255C120.92 24.9581 121.098 25.2744 122.058 25.8369C123.409 26.6805 123.658 27.6999 122.733 28.8247L122.058 29.6332L119.427 27.4187C116.298 24.7823 109.507 20.3181 105.631 18.3144L102.858 16.8732L103 15.2211C103.213 13.2526 102.324 11.8114 100.404 11.0381C98.8043 10.3702 96.8132 11.0381 95.8177 12.5144L95.1066 13.569L91.0177 12.2684C86.8577 10.9326 80.0666 9.38594 76.3332 8.96413C74.6621 8.75322 74.3066 8.61261 74.4488 8.12049C74.5555 7.80413 74.7332 5.9411 74.8755 3.93746L75.1243 0.352005H73.8799H72.6355L72.2088 5.48413ZM100.191 13.7799C101.329 14.9047 100.049 16.8381 98.4843 16.3459C97.5955 16.0647 97.1688 14.5884 97.7732 13.8853C98.3066 13.2526 99.5866 13.1823 100.191 13.7799Z" fill="black"/>
<path d="M43.8707 2.953C43.4795 3.93724 44.0129 4.64027 45.044 4.49966C45.8262 4.42936 46.0395 4.21845 46.0395 3.51542C46.0395 2.81239 45.8262 2.60148 45.044 2.53118C44.404 2.46087 44.0129 2.60148 43.8707 2.953Z" fill="black"/>
<path d="M41.1371 3.37503C40.6749 3.86715 40.8882 4.88655 41.5638 5.23806C42.4171 5.69503 43.5194 4.95685 43.3416 4.00776C43.1994 3.33988 41.6349 2.88291 41.1371 3.37503Z" fill="black"/>
<path d="M67.5197 5.16815C67.4841 6.293 67.3774 8.08572 67.2708 9.14027C67.0574 10.8627 66.9152 11.0736 66.2397 11.0385C65.5641 11.0385 65.4219 11.2142 65.4219 12.1985C65.4219 13.1124 65.5997 13.3936 66.2752 13.5694C66.773 13.6748 67.4841 13.6748 67.9108 13.5342C69.2974 13.0772 69.7241 11.9172 69.9374 7.41785L70.1508 3.16451H68.8708H67.5552L67.5197 5.16815Z" fill="black"/>
<path d="M58.0621 3.79757C57.6354 4.04363 57.4932 4.67636 57.5643 5.7309C57.5999 6.25817 57.8488 6.36363 59.1288 6.25817C60.9066 6.11757 61.2266 5.23878 59.5554 4.88727C58.5599 4.67636 58.5243 4.6412 59.3066 4.39514C59.7332 4.25454 60.0888 4.00848 60.0888 3.83272C60.0888 3.44605 58.6666 3.4109 58.0621 3.79757Z" fill="black"/>
<path d="M45.0484 5.48462C41.4573 6.39856 40.3195 8.08583 41.2795 11.1792C41.3862 11.4955 40.0706 12.1283 37.1551 13.1476C34.8084 13.9561 32.1062 14.9755 31.1106 15.4325C29.7595 16.0301 29.2973 16.1004 29.1906 15.7489C29.1195 15.5028 28.5862 14.8701 28.0528 14.3428C26.7728 13.0773 25.5284 13.0773 23.004 14.4131C21.9017 14.9755 20.8351 15.4676 20.6928 15.4676C20.5151 15.4676 20.0884 14.8349 19.7328 14.0616C19.0217 12.5149 18.5595 12.3392 17.4928 13.2531C16.7462 13.8858 16.7462 13.8858 18.7017 17.3658C19.7684 19.2992 20.5862 20.881 20.5506 20.9161C20.4795 20.9513 19.0928 21.8652 17.4217 22.9549C15.7506 24.0446 13.1195 25.9428 11.5551 27.2083L8.71062 29.4931L7.00396 27.7707C6.04396 26.7864 5.15507 26.0131 5.01285 26.0131C4.87062 26.0131 4.44396 26.3295 4.0884 26.7161C3.37729 27.5246 3.27062 27.384 6.29285 30.7234C8.14173 32.7973 8.60396 33.887 7.75062 34.2034C7.43062 34.3089 7.6084 34.6955 8.2484 35.3283L9.17285 36.3125L10.0973 35.3986C11.0573 34.4495 11.2706 33.1137 10.6662 31.9889C10.3817 31.4616 10.7017 31.0398 12.7284 29.458C16.9595 26.0834 20.6573 23.6931 26.4884 20.5998C32.9595 17.1901 38.044 15.1864 44.2662 13.6046C46.6128 13.007 48.604 12.4798 48.6751 12.4446C48.7817 12.3743 46.9684 5.16825 46.7906 5.0628C46.7906 5.02765 45.9728 5.23856 45.0484 5.48462ZM45.4395 9.21068C45.8306 10.5816 45.6884 10.898 44.8351 10.898C43.484 10.898 42.844 9.14038 44.0173 8.4725C44.9417 7.91007 45.1195 7.98038 45.4395 9.21068ZM26.6662 16.487C26.844 16.8737 27.0217 17.2604 27.0217 17.3658C27.0217 17.4713 26.0617 18.0337 24.8884 18.6313L22.7551 19.6858L22.3284 18.807C22.1151 18.3149 22.0084 17.858 22.0795 17.8228C22.684 17.2955 25.4928 15.8192 25.8484 15.8192C26.0973 15.8192 26.4528 16.1355 26.6662 16.487Z" fill="black"/>
<path d="M56.9217 21.8301C38.5751 23.7283 21.0462 32.7622 9.06396 46.5065C6.1484 49.8459 2.34396 55.0483 0.530625 58.2119L-0.109375 59.3016L1.70396 61.938C5.79285 67.9489 10.2373 72.9053 15.2862 77.0532C27.9795 87.5635 42.2728 93.1877 59.1973 94.3828L62.3973 94.6289L59.304 91.5004L56.1751 88.4071L59.2684 85.3138L62.3973 82.2556H60.7973C56.3528 82.2556 49.4195 80.9901 43.6951 79.0919C37.0462 76.9125 31.0373 73.7138 25.4195 69.4253C22.4684 67.1404 14.9306 59.6883 14.9306 59.0204C14.9306 57.9659 22.6462 49.881 26.664 46.6822C33.9173 40.9877 44.3706 36.3125 53.864 34.5901C58.8062 33.6762 70.9306 33.641 75.5528 34.555C88.9928 37.1913 99.6595 42.8859 108.975 52.4471C113.313 56.8762 116.122 60.6022 118.433 64.8556C119.251 66.4022 119.997 67.738 120.104 67.8435C120.388 68.195 126.077 60.3562 127.428 57.7198L128.033 56.595L126.148 53.8532C123.304 49.635 120.708 46.5416 116.975 42.8859C101.188 27.2435 79.1795 19.5453 56.9217 21.8301Z" fill="#8A1538"/>
<path d="M116.94 30.7928C116.336 31.4958 116.905 32.4801 118.043 32.6207C119.323 32.8316 119.856 31.7068 118.896 30.7928C118.185 30.0898 117.545 30.0898 116.94 30.7928Z" fill="black"/>
<path d="M59.5517 46.0495C53.4362 46.7525 47.6051 48.4749 42.1651 51.2519C37.8984 53.3961 31.6406 57.8604 31.6406 58.704C31.6406 59.1258 37.4717 63.0979 39.8895 64.3282L42.1651 65.4883L43.7651 64.4337C46.1828 62.7816 50.734 60.6373 53.8628 59.6531C64.2806 56.4192 75.9073 58.0713 85.0806 64.1173C87.854 65.9101 94.9295 72.6592 94.9295 73.4676C94.9295 74.0301 86.5028 77.9319 82.4851 79.2325C78.8584 80.4276 73.0984 81.6228 68.8317 82.0798L66.734 82.3258L69.8273 85.384L72.8851 88.407L69.934 91.3598L67.0184 94.2773L70.3606 94.0664C78.1117 93.5743 87.8895 90.8676 95.8184 87.001C100.583 84.7161 106.77 80.8495 109.436 78.4943L110.93 77.1586L109.187 73.5731C102.254 59.3719 88.814 49.2482 73.4895 46.6119C69.5428 45.9089 63.0717 45.6628 59.5517 46.0495Z" fill="#8A1538"/>
<path d="M118.115 84.9264C115.91 86.0161 114.844 87.3519 114.844 89.0743C114.844 91.6404 117.048 92.6246 120.035 91.3943C122.346 90.4452 123.377 90.621 122.595 91.8513C122.204 92.4489 120.284 93.6792 119.182 94.0658C119.146 94.0658 119.217 94.5931 119.324 95.1907C119.608 96.5967 120.248 96.6319 122.417 95.261C125.51 93.3277 126.328 90.7616 124.479 88.8986C123.27 87.7034 122.346 87.6331 120.213 88.5822C118.399 89.4258 117.333 89.4961 117.333 88.7931C117.333 88.1604 118.933 86.8949 120.07 86.6137C120.746 86.438 120.853 86.2271 120.675 85.6295C120.177 84.0125 120.07 83.9774 118.115 84.9264Z" fill="black"/>
<path d="M7.14763 86.367C3.34319 88.23 3.20097 93.573 6.86319 95.9282C7.92985 96.6312 8.17874 96.9827 8.17874 97.967C8.17874 98.9863 8.28541 99.127 9.06763 99.127C9.8143 99.127 9.95652 98.9512 9.95652 98.0724C9.95652 97.1936 10.1343 96.9827 11.3076 96.7015C15.2187 95.647 16.6765 90.6906 13.9032 87.773C12.0187 85.7342 9.52985 85.207 7.14763 86.367ZM11.9121 89.1088C13.0854 90.2336 13.0499 91.7451 11.8765 93.116C10.8099 94.4166 10.0632 94.5221 9.88541 93.4324C9.74319 92.3779 8.5343 92.167 8.28541 93.1512C8.10763 93.8542 8.03652 93.8542 7.43208 93.2918C6.36541 92.3427 6.54319 90.4797 7.78763 89.2494C9.13874 87.9488 10.7032 87.8785 11.9121 89.1088Z" fill="black"/>
<path d="M110.684 90.5512C109.831 91.0434 109.155 91.6409 109.155 91.887C109.155 92.0979 109.724 93.7149 110.435 95.4022C111.111 97.1246 111.608 98.5658 111.537 98.6361C111.466 98.7415 110.257 97.6167 108.871 96.1403C107.52 94.6991 106.275 93.504 106.168 93.504C106.026 93.504 105.28 93.9258 104.426 94.4531C103.608 94.9803 102.897 95.4373 102.826 95.4725C102.613 95.5779 108.266 104.155 108.622 104.295C108.835 104.331 109.368 104.085 109.831 103.733L110.648 103.1L109.084 100.675C108.231 99.3391 107.377 98.0034 107.235 97.7222C107.057 97.4409 108.124 98.3197 109.546 99.7258L112.177 102.257L113.351 101.519C114.666 100.71 114.666 100.921 113.031 96.7028C112.462 95.2615 112.071 94.0312 112.106 93.9961C112.142 93.9258 113.031 95.2264 114.097 96.8434C116.053 99.9719 115.982 99.9367 117.653 98.8119C118.08 98.5658 117.617 97.6167 115.342 94.0664C113.813 91.6409 112.462 89.6373 112.355 89.6373C112.248 89.6373 111.502 90.0591 110.684 90.5512Z" fill="black"/>
<path d="M16.1055 96.0696C13.7233 97.8623 11.7677 99.409 11.7677 99.5496C11.7321 99.6902 12.1588 100.077 12.6566 100.428C13.4033 100.885 13.6877 100.92 14.1855 100.604C15.3233 99.7605 15.6433 99.7956 17.2077 100.85C18.6655 101.87 18.7721 102.01 18.4877 102.959C18.2388 103.838 18.3099 104.084 19.0566 104.541C19.5188 104.857 20.0166 105.104 20.1588 105.104C20.4433 105.104 23.2521 94.5581 23.0388 94.3823C22.9677 94.3472 22.4344 93.9956 21.7944 93.5738C21.1899 93.152 20.621 92.8005 20.5499 92.8005C20.5144 92.8356 18.4877 94.2768 16.1055 96.0696ZM19.8744 97.8623L19.4833 99.4793L18.4166 98.8465L17.3855 98.249L18.7366 97.1241C19.4477 96.5265 20.1233 96.0696 20.1944 96.1047C20.2299 96.175 20.1233 96.9484 19.8744 97.8623Z" fill="black"/>
<path d="M24.2472 96.8434C23.9983 97.3355 23.8205 97.7925 23.8205 97.8628C23.8205 97.9331 24.4605 98.2495 25.2427 98.601C26.0249 98.9525 26.6649 99.3743 26.6649 99.5501C26.6649 99.6907 25.8827 101.413 24.8872 103.346L23.1094 106.862L24.2116 107.389C24.816 107.705 25.3494 107.916 25.4205 107.846C25.456 107.776 26.3449 106.123 27.3405 104.12L29.1538 100.534L30.6116 101.272C31.4294 101.659 32.1049 101.94 32.176 101.87C32.3894 101.624 33.0649 100.218 33.0649 100.042C33.0649 99.7961 25.4205 95.9646 24.9583 95.9646C24.7805 95.9646 24.4605 96.3513 24.2472 96.8434Z" fill="black"/>
<path d="M96.7417 98.143C94.0039 99.9709 93.2217 102.537 94.5373 105.244C96.3862 108.97 101.151 109.462 103.924 106.158C105.808 103.978 105.524 100.92 103.284 98.7758C102.217 97.7564 101.755 97.5806 100.013 97.44C98.3062 97.3346 97.7373 97.44 96.7417 98.143ZM101.506 100.709C102.679 101.834 102.751 104.049 101.613 105.103C99.7284 106.825 96.7062 105.349 96.7062 102.678C96.7062 100.006 99.6217 98.8109 101.506 100.709Z" fill="black"/>
<path d="M88.3567 101.587C84.3744 102.818 84.09 102.958 84.1967 103.732C84.41 105.032 84.8011 105.208 86.2233 104.751C86.9344 104.505 87.6811 104.47 87.8233 104.61C88.0011 104.786 88.6411 106.544 89.2456 108.547C89.85 110.516 90.4189 112.133 90.4544 112.133C91.1656 112.133 92.8011 111.254 92.6944 110.938C92.5522 110.551 90.9878 105.7 90.4544 104.013C90.3478 103.591 90.7033 103.345 91.9122 102.993C93.2989 102.607 93.5122 102.431 93.2989 101.798C92.8011 100.252 92.7656 100.252 88.3567 101.587Z" fill="black"/>
<path d="M32.3155 104.821C30.4666 107.106 28.9377 109.145 28.8666 109.286C28.7955 109.461 29.2577 109.778 29.8622 109.989C30.8577 110.305 31.0711 110.27 31.7466 109.497L32.5288 108.618L34.4133 109.215C36.1199 109.778 36.2622 109.883 36.2622 110.938C36.2622 111.887 36.4399 112.133 37.3644 112.449C38.0044 112.66 38.5733 112.836 38.6088 112.836C38.6799 112.836 38.7511 110.305 38.7511 107.247V101.658L37.1866 101.13L35.6577 100.603L32.3155 104.821ZM36.2622 105.489C36.2622 107.282 36.2622 107.282 35.3022 107.036C34.7333 106.895 34.2355 106.755 34.1644 106.684C34.0577 106.544 35.9777 103.732 36.1911 103.697C36.2266 103.697 36.2622 104.505 36.2622 105.489Z" fill="black"/>
<path d="M41.2805 107.774C40.6405 110.587 40.1783 112.942 40.2494 113.012C40.3205 113.047 40.8539 113.223 41.4939 113.328C42.5961 113.574 42.5961 113.574 43.0227 111.676C43.5561 109.04 44.4094 109.251 45.3694 112.239C46.0094 114.137 46.1872 114.418 47.2539 114.699C47.8939 114.84 48.4983 114.91 48.605 114.805C48.7116 114.699 48.4627 113.715 48.0716 112.555L47.3605 110.481L48.5694 109.532C49.6005 108.723 49.7783 108.372 49.7783 107.071C49.7783 105.033 48.7827 104.189 45.4761 103.31C44.0183 102.959 42.7383 102.642 42.6316 102.642C42.525 102.642 41.9205 104.962 41.2805 107.774ZM47.0405 106.474C47.7161 107.142 47.005 107.915 45.725 107.915C44.3027 107.915 43.9472 107.528 44.2316 106.333C44.4094 105.595 44.5516 105.525 45.5827 105.841C46.1872 106.017 46.8627 106.298 47.0405 106.474Z" fill="black"/>
<path d="M78.0099 103.698C77.0499 104.085 75.7344 105.702 75.7344 106.545C75.7344 107.53 76.4099 108.795 77.2277 109.287C77.6544 109.533 78.9344 109.85 80.0722 109.92C81.7788 110.096 82.1344 110.236 82.1344 110.763C82.1344 111.572 79.8944 112.24 78.2588 111.924C77.2988 111.713 77.1566 111.783 77.1566 112.416C77.1566 112.802 77.0499 113.365 76.9433 113.646C76.6588 114.384 78.7922 114.7 81.1033 114.208C84.6944 113.435 86.1166 110.728 83.9833 108.619C83.201 107.846 82.5255 107.6 80.7833 107.389C79.5744 107.248 78.5077 107.002 78.401 106.862C78.0455 106.299 79.3966 105.702 80.9966 105.737C82.7388 105.737 83.201 105.42 83.201 104.12C83.201 103.382 83.0588 103.347 80.9966 103.382C79.7522 103.382 78.401 103.522 78.0099 103.698Z" fill="black"/>
<path d="M72.4247 104.647C71.8914 104.788 71.7847 105.034 71.9625 105.913C72.0336 106.546 72.2469 108.092 72.3536 109.358C72.6736 112.416 72.2825 113.189 70.3981 113.189C68.6203 113.189 68.4425 112.838 67.9447 108.62C67.6958 106.792 67.4825 105.245 67.4114 105.21C67.3758 105.14 66.8069 105.21 66.2025 105.315C64.8869 105.561 64.9225 105.491 65.4558 109.85C66.0603 114.771 67.1269 115.896 71.0025 115.58C72.7092 115.439 73.1714 115.228 74.0603 114.244L75.1269 113.084L74.8781 109.252C74.7358 107.143 74.5225 105.175 74.4158 104.894C74.2381 104.401 73.6692 104.331 72.4247 104.647Z" fill="black"/>
<path d="M58.7678 105.103C56.1011 105.736 54.75 107.599 54.75 110.657C54.75 114.559 58.5189 116.985 62.5367 115.614C63.1411 115.403 63.6389 115.192 63.6389 115.122C63.6389 115.087 63.4256 114.559 63.1767 113.962C62.8211 113.153 62.6078 112.942 62.2167 113.188C61.3278 113.751 59.1589 113.575 58.3056 112.907C57.8433 112.556 57.4878 111.747 57.3456 110.868C57.2033 109.708 57.31 109.287 58.0567 108.408C58.7678 107.599 59.1944 107.388 60.4033 107.423C61.1856 107.459 62.0744 107.67 62.3589 107.88C62.7856 108.232 62.9989 108.127 63.4256 107.248C64.1367 105.912 64.1722 105.947 63.0344 105.525C61.5056 104.928 60.0122 104.787 58.7678 105.103Z" fill="black"/>
</g>
<defs>
<clipPath id="clip0_2_124">
<rect width="128" height="116" fill="white"/>
</clipPath>
</defs>
</svg>
