<svg width="23" height="23" viewBox="0 0 23 23" fill="none" xmlns="http://www.w3.org/2000/svg">
<path fill-rule="evenodd" clip-rule="evenodd" d="M12.7482 0.333984C14.3295 0.334119 15.8879 0.712409 17.2933 1.43729C18.6986 2.16218 19.9103 3.21264 20.8271 4.50103C21.744 5.78942 22.3394 7.27839 22.5637 8.8437C22.7881 10.409 22.6349 12.0053 22.1168 13.4993C21.5988 14.9934 20.731 16.3419 19.5858 17.4323C18.4406 18.5228 17.0513 19.3236 15.5336 19.7679C14.016 20.2121 12.4142 20.2871 10.8617 19.9864C9.30926 19.6857 7.85122 19.0181 6.60924 18.0393L2.34858 22.3C2.12854 22.5125 1.83384 22.6301 1.52794 22.6274C1.22204 22.6248 0.92943 22.5021 0.71312 22.2858C0.496811 22.0695 0.374115 21.7768 0.371456 21.471C0.368799 21.1651 0.486393 20.8704 0.69891 20.6503L4.95957 16.3897C3.80691 14.9274 3.08922 13.1701 2.88863 11.319C2.68803 9.46788 3.01264 7.59767 3.82531 5.92243C4.63798 4.24718 5.90588 2.83457 7.48389 1.84625C9.0619 0.857942 10.8863 0.333859 12.7482 0.333984ZM20.3316 10.2507C20.3316 8.23943 19.5326 6.31058 18.1105 4.88842C16.6883 3.46627 14.7595 2.66732 12.7482 2.66732C10.737 2.66732 8.80817 3.46627 7.38601 4.88842C5.96386 6.31058 5.16491 8.23943 5.16491 10.2507C5.16491 12.2619 5.96386 14.1907 7.38601 15.6129C8.80817 17.035 10.737 17.834 12.7482 17.834C14.7595 17.834 16.6883 17.035 18.1105 15.6129C19.5326 14.1907 20.3316 12.2619 20.3316 10.2507Z" fill="#BA915F"/>
</svg>
