<svg width="24" height="26" viewBox="0 0 24 26" fill="none" xmlns="http://www.w3.org/2000/svg">
<path fill-rule="evenodd" clip-rule="evenodd" d="M12 8.625C13.1603 8.625 14.2731 9.08594 15.0936 9.90641C15.9141 10.7269 16.375 11.8397 16.375 13C16.375 14.1603 15.9141 15.2731 15.0936 16.0936C14.2731 16.9141 13.1603 17.375 12 17.375C10.8397 17.375 9.72688 16.9141 8.90641 16.0936C8.08594 15.2731 7.625 14.1603 7.625 13C7.625 11.8397 8.08594 10.7269 8.90641 9.90641C9.72688 9.08594 10.8397 8.625 12 8.625ZM14.625 13C14.625 12.3038 14.3484 11.6361 13.8562 11.1438C13.3639 10.6516 12.6962 10.375 12 10.375C11.3038 10.375 10.6361 10.6516 10.1438 11.1438C9.65156 11.6361 9.375 12.3038 9.375 13C9.375 13.6962 9.65156 14.3639 10.1438 14.8562C10.6361 15.3484 11.3038 15.625 12 15.625C12.6962 15.625 13.3639 15.3484 13.8562 14.8562C14.3484 14.3639 14.625 13.6962 14.625 13Z" fill="#BA915F"/>
<path fill-rule="evenodd" clip-rule="evenodd" d="M12.0293 0.458984C12.5484 0.458984 12.9813 0.458984 13.3359 0.482318C13.6985 0.497414 14.056 0.572312 14.3941 0.703984C14.7835 0.865089 15.1373 1.10132 15.4354 1.39919C15.7334 1.69705 15.9699 2.05072 16.1313 2.43998C16.3004 2.84832 16.3459 3.27998 16.3646 3.74898C16.3665 3.92051 16.4119 4.08875 16.4966 4.23792C16.5812 4.38709 16.7024 4.51231 16.8488 4.60182C16.9994 4.68407 17.1685 4.72669 17.3401 4.72567C17.5117 4.72465 17.6803 4.68002 17.8299 4.59598C18.2453 4.37665 18.6419 4.20048 19.0806 4.14215C19.4983 4.0872 19.9228 4.11507 20.3298 4.22417C20.7367 4.33327 21.1182 4.52145 21.4524 4.77798C21.735 5.00534 21.9782 5.27772 22.1723 5.58415C22.3706 5.88049 22.5876 6.25498 22.8466 6.70415L22.8758 6.75548C23.1359 7.20465 23.3518 7.57915 23.5081 7.89882C23.6714 8.23248 23.7998 8.56149 23.8464 8.92548C23.9577 9.76897 23.7294 10.6221 23.2118 11.2973C22.9423 11.6485 22.5911 11.904 22.1944 12.1537C22.0465 12.2411 21.9233 12.3647 21.8364 12.5129C21.7494 12.661 21.7016 12.8289 21.6974 13.0007C21.7016 13.1724 21.7494 13.3403 21.8364 13.4884C21.9233 13.6366 22.0465 13.7602 22.1944 13.8477C22.5911 14.0973 22.9411 14.3528 23.2118 14.704C23.4683 15.0382 23.6565 15.4197 23.7656 15.8267C23.8747 16.2336 23.9025 16.6581 23.8476 17.0758C23.7998 17.4398 23.6726 17.7688 23.5093 18.1025C23.3518 18.4222 23.1359 18.7967 22.8758 19.2458L22.8466 19.2972C22.5876 19.7463 22.3706 20.1208 22.1723 20.4172C21.9658 20.724 21.7441 21.0005 21.4524 21.2222C21.1183 21.4789 20.7368 21.6673 20.3299 21.7766C19.9229 21.8859 19.4984 21.9139 19.0806 21.8592C18.6419 21.8008 18.2453 21.6258 17.8299 21.4053C17.6805 21.3214 17.5121 21.2768 17.3407 21.2758C17.1693 21.2748 17.0004 21.3173 16.8499 21.3995C16.7028 21.4883 16.5808 21.6133 16.4957 21.7626C16.4105 21.9119 16.365 22.0805 16.3634 22.2523C16.3459 22.7213 16.3004 23.153 16.1301 23.5613C15.969 23.9507 15.7328 24.3045 15.4349 24.6026C15.137 24.9007 14.7834 25.1371 14.3941 25.2985C14.0558 25.4385 13.7058 25.4933 13.3359 25.5178C12.9813 25.5423 12.5484 25.5423 12.0293 25.5423H11.9709C11.4518 25.5423 11.0189 25.5423 10.6643 25.519C10.2933 25.4933 9.94443 25.4385 9.6061 25.2973C9.21672 25.1362 8.8629 24.9 8.56483 24.6021C8.26677 24.3043 8.0303 23.9506 7.86893 23.5613C7.69976 23.153 7.65426 22.7213 7.6356 22.2523C7.63393 22.0806 7.58862 21.9121 7.50392 21.7627C7.41922 21.6133 7.29793 21.4879 7.15143 21.3983C7.0007 21.3162 6.83157 21.2738 6.65994 21.275C6.48832 21.2763 6.31981 21.3211 6.17027 21.4053C5.75493 21.6247 5.35826 21.8008 4.9196 21.858C4.07611 21.9693 3.22295 21.741 2.54777 21.2233C2.2561 20.9993 2.03443 20.724 1.82793 20.4172C1.6296 20.1208 1.4126 19.7463 1.1536 19.2972L1.12443 19.2458C0.864264 18.7967 0.648432 18.4222 0.492098 18.1025C0.328764 17.7688 0.200432 17.4387 0.153765 17.0758C0.0424652 16.2323 0.270758 15.3792 0.788431 14.704C1.05793 14.3528 1.4091 14.0973 1.80576 13.8477C1.95365 13.7602 2.07686 13.6366 2.16381 13.4884C2.25075 13.3403 2.29857 13.1724 2.30276 13.0007C2.30276 12.6763 2.12543 12.3543 1.80576 12.1537C1.4091 11.904 1.0591 11.6485 0.788431 11.2973C0.5319 10.9631 0.343714 10.5816 0.234617 10.1746C0.125521 9.76768 0.0976505 9.34322 0.152597 8.92548C0.208124 8.56698 0.322439 8.2201 0.490932 7.89882C0.690117 7.51119 0.901386 7.12989 1.12443 6.75548L1.1536 6.70415C1.36671 6.32392 1.5916 5.95041 1.82793 5.58415C2.02195 5.27804 2.26517 5.00605 2.54777 4.77915C2.88191 4.52242 3.26336 4.33402 3.67032 4.22472C4.07728 4.11543 4.50179 4.08737 4.9196 4.14215C5.35826 4.20048 5.75493 4.37548 6.17027 4.59598C6.31977 4.67982 6.48811 4.72433 6.65951 4.72535C6.83092 4.72637 6.99977 4.68386 7.15027 4.60182C7.29703 4.51259 7.41868 4.3875 7.50379 4.23831C7.58889 4.08912 7.63465 3.92073 7.63677 3.74898C7.65427 3.27998 7.69977 2.84832 7.8701 2.43998C8.0312 2.05061 8.26743 1.69678 8.5653 1.39872C8.86317 1.10065 9.21683 0.864184 9.6061 0.702818C9.94443 0.562818 10.2944 0.507984 10.6643 0.483484C11.0189 0.458984 11.4518 0.458984 11.9709 0.458984H12.0293ZM13.7244 2.31982C13.6346 2.28248 13.4981 2.24865 13.2169 2.22882C12.9288 2.20898 12.5554 2.20898 12.0001 2.20898C11.4448 2.20898 11.0714 2.20898 10.7833 2.22882C10.5021 2.24865 10.3656 2.28248 10.2758 2.31982C9.9176 2.46798 9.6341 2.75148 9.48593 3.10965C9.43927 3.22165 9.40077 3.39782 9.3856 3.81432C9.3506 4.73832 8.87343 5.62848 8.02643 6.11732C7.17943 6.60732 6.17027 6.57465 5.35243 6.14298C4.98376 5.94815 4.81227 5.89332 4.69093 5.87815C4.30761 5.8275 3.91986 5.93115 3.61293 6.16632C3.53593 6.22582 3.43793 6.32732 3.28043 6.56065C3.11826 6.80098 2.9316 7.12415 2.65393 7.60482C2.37626 8.08548 2.19077 8.40982 2.0636 8.66882C1.93876 8.92198 1.90026 9.05732 1.8886 9.15415C1.83795 9.53748 1.9416 9.92523 2.17677 10.2322C2.25143 10.329 2.38443 10.4503 2.73676 10.672C3.52077 11.1643 4.05276 12.023 4.05276 13.0007C4.05276 13.9783 3.52077 14.837 2.73676 15.3293C2.38443 15.551 2.25143 15.6723 2.17677 15.7692C1.9411 16.076 1.83843 16.4633 1.8886 16.8472C1.90026 16.944 1.93993 17.0805 2.0636 17.3325C2.19077 17.5927 2.37626 17.9158 2.65393 18.3965C2.9316 18.8772 3.11943 19.2003 3.28043 19.4407C3.43793 19.674 3.53593 19.7755 3.61293 19.835C3.91986 20.0702 4.30761 20.1738 4.69093 20.1232C4.81227 20.108 4.9826 20.0532 5.35243 19.8583C6.1691 19.4267 7.17943 19.394 8.02643 19.8828C8.87343 20.3728 9.3506 21.263 9.3856 22.187C9.40077 22.6035 9.43927 22.7797 9.48593 22.8917C9.55922 23.0687 9.66671 23.2297 9.80223 23.3652C9.93776 23.5007 10.0987 23.6082 10.2758 23.6815C10.3656 23.7188 10.5021 23.7527 10.7833 23.7725C11.0714 23.7923 11.4448 23.7923 12.0001 23.7923C12.5554 23.7923 12.9288 23.7923 13.2169 23.7725C13.4981 23.7527 13.6346 23.7188 13.7244 23.6815C13.9015 23.6082 14.0624 23.5007 14.198 23.3652C14.3335 23.2297 14.441 23.0687 14.5143 22.8917C14.5609 22.7797 14.5994 22.6035 14.6146 22.187C14.6496 21.263 15.1268 20.3728 15.9738 19.884C16.8208 19.394 17.8299 19.4267 18.6478 19.8583C19.0164 20.0532 19.1879 20.108 19.3093 20.1232C19.6926 20.1738 20.0803 20.0702 20.3873 19.835C20.4643 19.7755 20.5623 19.674 20.7198 19.4407C20.9392 19.0991 21.1481 18.7509 21.3463 18.3965C21.6239 17.9158 21.8094 17.5915 21.9366 17.3325C22.0614 17.0793 22.0999 16.944 22.1116 16.8472C22.1623 16.4638 22.0586 16.0761 21.8234 15.7692C21.7488 15.6723 21.6158 15.551 21.2634 15.3293C20.4794 14.837 19.9474 13.9783 19.9474 13.0007C19.9474 12.023 20.4794 11.1643 21.2634 10.672C21.6158 10.4503 21.7488 10.329 21.8234 10.2322C22.0586 9.92523 22.1623 9.53748 22.1116 9.15415C22.0999 9.05732 22.0603 8.92082 21.9366 8.66882C21.8094 8.40865 21.6239 8.08548 21.3463 7.60482C21.0686 7.12415 20.8808 6.80098 20.7198 6.56065C20.5623 6.32732 20.4643 6.22582 20.3873 6.16632C20.0803 5.93115 19.6926 5.8275 19.3093 5.87815C19.1879 5.89332 19.0176 5.94815 18.6478 6.14298C17.8311 6.57465 16.8208 6.60732 15.9738 6.11732C15.1268 5.62848 14.6496 4.73832 14.6146 3.81432C14.5994 3.39782 14.5609 3.22165 14.5143 3.10965C14.3661 2.75148 14.0826 2.46798 13.7244 2.31982Z" fill="#BA915F"/>
</svg>
