<svg width="17" height="16" viewBox="0 0 17 16" fill="none" xmlns="http://www.w3.org/2000/svg">
<path d="M8.95991 0C7.90201 0 6.88745 0.421427 6.1394 1.17157C5.39136 1.92172 4.97111 2.93913 4.97111 4C4.97111 5.06087 5.39136 6.07828 6.1394 6.82843C6.88745 7.57857 7.90201 8 8.95991 8C10.0178 8 11.0324 7.57857 11.7804 6.82843C12.5285 6.07828 12.9487 5.06087 12.9487 4C12.9487 2.93913 12.5285 1.92172 11.7804 1.17157C11.0324 0.421427 10.0178 0 8.95991 0ZM8.95991 10C4.55229 10 0.982317 11.79 0.982317 14V16H16.9375V14C16.9375 11.79 13.3675 10 8.95991 10Z" fill="#BA915F"/>
</svg>
